# xmcd CD database file
#
# Track frame offsets:
#	150
#	16147
#	30544
#	48466
#	62300
#	79958
#	92310
#	105447
#	115620
#	131268
#	147462
#	161505
#	176178
#	192067
#	213182
#	227119
#
# Disc length: 3218 seconds
#
# Revision: 0
# Processed by: cddbd v1.5.2PL0 Copyright (c) Steve Scherf et al.
# Submitted via: CDex 1.51
#
DISCID=c20c9010
DTITLE=Heinz Sauer - If (Blue) then (blue)
DYEAR=2010
DGENRE=Jazz
TTITLE0=All Blues
TTITLE1=Tantricity
TTITLE2=Sophisticated Lady
TTITLE3=Actors
TTITLE4=Lost Silhouettes
TTITLE5=Blue In Green
TTITLE6=Tutatis
TTITLE7=La belle racune
TTITLE8=Blue And Other Notes
TTITLE9=Flamenco Sketches
TTITLE10=Egodeology
TTITLE11=Lover Man
TTITLE12=There Again
TTITLE13=In A Sentimental Mood
TTITLE14=Go From Here
TTITLE15=Still Around Redford
EXTD=YEAR: 2010
EXTT0=
EXTT1=
EXTT2=
EXTT3=
EXTT4=
EXTT5=
EXTT6=
EXTT7=
EXTT8=
EXTT9=
EXTT10=
EXTT11=
EXTT12=
EXTT13=
EXTT14=
EXTT15=
PLAYORDER=
